<svg xmlns="http://www.w3.org/2000/svg" viewBox="0 0 520 400" fill="none" aria-hidden="true">
  <defs>
    <linearGradient id="g-sky" x1="0" y1="0" x2="520" y2="400" gradientUnits="userSpaceOnUse">
      <stop stop-color="#e0f2fe"/>
      <stop offset="0.45" stop-color="#dbeafe"/>
      <stop offset="1" stop-color="#e9d5ff"/>
    </linearGradient>
    <linearGradient id="g-slide" x1="180" y1="80" x2="320" y2="320" gradientUnits="userSpaceOnUse">
      <stop stop-color="#2f6f9e"/>
      <stop offset="1" stop-color="#6366f1"/>
    </linearGradient>
  </defs>
  <rect width="520" height="400" rx="28" fill="url(#g-sky)"/>
  <circle cx="90" cy="70" r="28" fill="#fff" opacity="0.55"/>
  <circle cx="430" cy="95" r="36" fill="#fff" opacity="0.45"/>
  <path d="M40 52 L55 48 L70 52 L55 56 Z" fill="#fde68a" opacity="0.9"/>
  <path d="M460 48 L475 44 L490 48 L475 52 Z" fill="#fda4af" opacity="0.85"/>
  <path d="M120 36 L520 36" stroke="#fff" stroke-width="2" stroke-dasharray="6 10" opacity="0.35"/>
  <path d="M200 120 Q260 60 340 120 L360 260 Q280 300 200 260 Z" fill="url(#g-slide)" opacity="0.95"/>
  <rect x="215" y="95" width="14" height="72" rx="3" fill="#fb923c" opacity="0.9"/>
  <ellipse cx="285" cy="295" rx="88" ry="36" fill="#0c1f36" opacity="0.88"/>
  <ellipse cx="285" cy="288" rx="80" ry="28" fill="#1e3a5f"/>
  <circle cx="250" cy="275" r="10" fill="#fbbf24"/>
  <circle cx="275" cy="282" r="9" fill="#34d399"/>
  <circle cx="305" cy="278" r="10" fill="#f472b6"/>
  <circle cx="320" cy="292" r="8" fill="#fde68a"/>
  <ellipse cx="385" cy="310" rx="56" ry="18" fill="#0c1f36" opacity="0.2"/>
  <ellipse cx="385" cy="285" rx="48" ry="12" fill="#38bdf8" opacity="0.35"/>
  <rect x="352" y="218" width="86" height="18" rx="9" fill="#fff" opacity="0.5"/>
  <circle cx="365" cy="200" r="22" fill="#fecdd3"/>
  <path d="M358 210 Q365 218 372 210" stroke="#0c1f36" stroke-width="2" stroke-linecap="round" opacity="0.35"/>
  <circle cx="410" cy="175" r="20" fill="#fcd34d" opacity="0.85"/>
  <path d="M420 360 Q480 280 500 120" stroke="url(#g-slide)" stroke-width="18" stroke-linecap="round" opacity="0.35"/>
</svg>
