<svg xmlns="http://www.w3.org/2000/svg" viewBox="0 0 520 440" fill="none">
  <defs>
    <linearGradient id="bg" x1="52" y1="0" x2="468" y2="440" gradientUnits="userSpaceOnUse">
      <stop stop-color="#e0f2fe"/>
      <stop offset="0.35" stop-color="#fce7f3"/>
      <stop offset="0.65" stop-color="#fef3c7"/>
      <stop offset="1" stop-color="#ddd6fe"/>
    </linearGradient>
    <linearGradient id="screen" x1="280" y1="120" x2="420" y2="320" gradientUnits="userSpaceOnUse">
      <stop stop-color="#38bdf8"/>
      <stop offset="0.45" stop-color="#818cf8"/>
      <stop offset="1" stop-color="#c084fc"/>
    </linearGradient>
    <linearGradient id="shirt" x1="120" y1="200" x2="220" y2="360" gradientUnits="userSpaceOnUse">
      <stop stop-color="#0d9488"/>
      <stop offset="0.5" stop-color="#2563eb"/>
      <stop offset="1" stop-color="#4f46e5"/>
    </linearGradient>
    <filter id="soft" x="-20%" y="-20%" width="140%" height="140%">
      <feGaussianBlur stdDeviation="2" result="b"/>
      <feMerge><feMergeNode in="b"/><feMergeNode in="SourceGraphic"/></feMerge>
    </filter>
  </defs>
  <rect width="520" height="440" rx="32" fill="url(#bg)"/>
  <ellipse cx="120" cy="380" rx="90" ry="18" fill="#0c1f36" opacity="0.12"/>
  <ellipse cx="400" cy="120" rx="70" ry="70" fill="#f472b6" opacity="0.2"/>
  <ellipse cx="80" cy="100" rx="50" ry="50" fill="#22d3ee" opacity="0.22"/>
  <ellipse cx="420" cy="360" rx="56" ry="56" fill="#a78bfa" opacity="0.18"/>
  <!-- learner -->
  <g filter="url(#soft)">
    <circle cx="168" cy="168" r="44" fill="#fecdd3"/>
    <circle cx="152" cy="162" r="8" fill="#fda4af" opacity="0.7"/>
    <circle cx="188" cy="164" r="8" fill="#fda4af" opacity="0.7"/>
    <path d="M128 218c0-24 20-44 44-44h8c24 0 44 20 44 44v92c0 12-10 22-22 22h-52c-12 0-22-10-22-22V218z" fill="url(#shirt)"/>
    <path d="M108 228c16-8 28 4 24 32l-8 52c-2 12 6 20 18 18" stroke="#fcd34d" stroke-width="10" stroke-linecap="round" fill="none" opacity="0.9"/>
    <path d="M232 220c-12 8-8 28 8 40l36 24" stroke="#fcd34d" stroke-width="10" stroke-linecap="round" fill="none" opacity="0.9"/>
    <rect x="142" y="312" width="22" height="56" rx="10" fill="#1e3a8a"/>
    <rect x="188" y="312" width="22" height="56" rx="10" fill="#1e3a8a"/>
  </g>
  <!-- tablet -->
  <g transform="translate(248 88)">
    <rect x="0" y="0" width="200" height="268" rx="20" fill="#0f172a" stroke="#334155" stroke-width="3"/>
    <rect x="14" y="18" width="172" height="216" rx="12" fill="url(#screen)"/>
    <!-- abstract hands / sign on screen -->
    <path d="M48 120c20-28 52-28 72 0s52 28 72 0" stroke="rgba(255,255,255,0.85)" stroke-width="5" stroke-linecap="round" fill="none"/>
    <circle cx="86" cy="78" r="14" fill="#fbbf24" opacity="0.95"/>
    <circle cx="134" cy="64" r="12" fill="#34d399" opacity="0.95"/>
    <circle cx="118" cy="168" r="12" fill="#f472b6" opacity="0.95"/>
    <rect x="70" y="188" width="72" height="10" rx="5" fill="rgba(255,255,255,0.35)"/>
    <rect x="56" y="206" width="100" height="8" rx="4" fill="rgba(255,255,255,0.22)"/>
    <circle cx="100" cy="236" r="6" fill="#fff" opacity="0.5"/>
    <rect x="70" y="248" width="88" height="6" rx="3" fill="rgba(255,255,255,0.2)"/>
    <rect x="76" y="252" width="48" height="6" rx="3" fill="rgba(255,255,255,0.35)"/>
    <circle cx="100" cy="256" r="16" fill="#1e293b" opacity="0.4"/>
  </g>
  <!-- floating badges -->
  <g opacity="0.95">
    <rect x="32" y="280" width="72" height="56" rx="14" fill="#fff" stroke="#e2e8f0" stroke-width="2"/>
    <path d="M52 308h32M52 318h24" stroke="#94a3b8" stroke-width="4" stroke-linecap="round"/>
    <circle cx="68" cy="296" r="8" fill="#34d399"/>
    <rect x="380" y="48" width="88" height="72" rx="16" fill="#fff" stroke="#e2e8f0" stroke-width="2"/>
    <path d="M424 88c-8-10-24-10-32 0-8-12-28-8-36 4v36c8 8 20 12 32 20 12-8 24-12 32-20V92c-8-12-28-14-36-4z" fill="#f472b6" opacity="0.85"/>
  </g>
  <!-- sound waves -->
  <path d="M340 380c24 0 44-20 44-44s-20-44-44-44" stroke="#38bdf8" stroke-width="4" stroke-linecap="round" opacity="0.5"/>
  <path d="M352 380c32 0 58-26 58-58s-26-58-58-58" stroke="#818cf8" stroke-width="3" stroke-linecap="round" opacity="0.4"/>
</svg>
